<svg xmlns="http://www.w3.org/2000/svg" xml:space="preserve" viewBox="0 0 640 640">
  <path d="m396 484-127-61c-12-6-18-21-12-34l61-127c6-12 21-17 34-11l27 13V154h17v118s57 24 83 40c4 2 10 6 13 14 2 6 2 13-1 19l-61 127c-6 13-22 18-34 12z" />
  <path fill="#6CC644" d="M623 150c-4-4-10-4-10-4s-117 6-178 8l-39 1v117l-17-8V155l-89-3-157-8c-10-1-23-2-39 1-9 2-34 8-54 27C-5 212 7 276 8 286c2 12 7 44 32 72 46 56 144 55 144 55s12 29 31 56c25 33 50 59 75 62h189s12 0 29-11c14-8 26-23 26-23s13-14 31-45l14-28s55-118 55-232c-1-34-9-40-11-42zM126 354c-26-9-37-19-37-19s-19-13-29-40c-16-44-1-71-1-71s8-22 38-30c14-4 31-3 31-3s7 59 16 94c7 30 25 78 25 78s-27-3-43-9zm300 107s-6 15-20 16l-10-1-5-2-113-55s-11-6-13-16c-2-8 3-18 3-18l54-112s5-10 12-13l5-1c8-3 18 2 18 2l110 54s13 6 16 16c2 8-1 14-2 17-6 16-55 113-55 113z" />
  <path fill="#6CC644" d="M327 380c-8 0-16 6-17 14-2 8 2 16 9 20s17 2 22-5c5-8 5-17-1-24l24-49h6c4-1 7-4 7-4a246 246 0 0 1 29 16l5 5c2 6-2 15-2 15-2 7-18 40-18 40-8 0-16 6-18 13-3 8 1 17 9 21a18 18 0 0 0 21-28l6-11 13-30c1-2 6-11 3-22-2-11-13-16-13-16-12-8-29-16-29-16l-1-7-4-6 14-29-12-6-14 29c-7 0-13 4-16 10-4 6-3 14 1 20l-24 50z" />
</svg>