<svg xmlns="http://www.w3.org/2000/svg" xml:space="preserve" viewBox="0 0 1080 1080">
  <path fill="#000" d="M37 210c0-9 0-17 2-25l82 72 90-99-80-72a128 128 0 0 1 162 123v1l-1 18 100 89c-37 28-66 65-85 107l-103-92A128 128 0 0 1 37 210m878 532c-13 0-25 2-37 6l-97-86c-16 43-42 82-76 113l84 74a128 128 0 0 0 163 144l-84-74 90-99 83 74c2-8 2-16 2-24v-1c0-70-57-127-128-127M773 424l103-92a128 128 0 0 0 165-147l-82 72-90-99 80-72a128 128 0 0 0-162 123v1l1 18-100 89c37 28 66 65 85 107zM299 662l-97 86A128 128 0 0 0 37 869v1c0 8 0 16 2 24l83-74 90 99-84 74a128 128 0 0 0 163-144l84-74c-34-31-61-70-76-113m376 111a45 45 0 1 1-82 18h-8a45 45 0 1 1-90 0h-6a46 46 0 0 1-46 52c-25 0-45-21-45-46 0-9 2-17 6-24a274 274 0 0 1-104-219c0-147 108-266 240-266s240 119 240 266c0 91-42 171-105 219zM499 525c-6-11-14-20-23-28-12-7-25-10-39-11l-13 2c-17 2-32 14-42 27-8 11-15 24-15 38-2 12 1 23 3 35 3 13 12 24 23 32 5 4 12 10 18 5 5-6 1-14 5-20 1-6 5-11 11-14 11-5 22-11 34-15 9-2 17-9 25-14 11-8 18-24 13-37m42 98c-12-1-27 52-24 74 7 31 10-21 24-21 13 1 11 53 22 21 3-21-9-74-22-74m169-35c2-12 5-23 3-35 0-14-7-27-15-38a64 64 0 0 0-42-27l-13-2c-13 0-27 5-39 11-9 8-17 17-23 28-5 13 2 29 13 37 8 5 16 12 25 15 12 3 23 9 34 14 6 3 10 8 11 14 4 6 0 14 5 20 6 5 13-1 18-5 11-8 20-19 23-32" />
</svg>