<svg xmlns="http://www.w3.org/2000/svg" version="1.0" viewBox="0 0 300 300">
  <path fill="#0f0" d="m114 36-36 1H43v87a13603 13603 0 0 0 0 143c1 3 1 3 4 3h2c-1 1 1 1 7 1l7-1c-1-1-1-1 1-1 4 2 23 1 26 0l3-1-1 1-1 1h23c1-2 1-2 1 0h1l1-26c0-21 0-25 2-26 1-2 3-2 14-2 17 0 17 0 17 16l1 11h11c13 0 12-1 15 7v14c0 4 0 4 6 4 2 0 2 0 1 1l-1 2 2-2 33-1h32v-72h-12c-8 0-11-1-11-2l-1-1c-2 0-2-2-2-12v-13l-12 1-12-1h-1l-1-1v-1c-3 0-3-24 0-26l1-2c-1-1 2-2 6-2h19v-8c0-16 0-17 2-17l2-2 11-1h11l-1-35V37l-36-1-36 1-1 11c0 8 0 11-1 10h-1l-1 2-1 1c0 1-2 2-10 2h-12l-1 4v11c0 6 0 7-2 9l-1 2-13 1c-11 0-13 0-13-2l-2-1c-1 1-1 0-1-1a941 941 0 0 1-2-49l-1-1z" />
</svg>