<svg xmlns="http://www.w3.org/2000/svg" data-name="Layer 1" viewBox="0 0 504.36 504.36"><defs><linearGradient id="a" x1="163.6" x2="216.72" y1="2319.39" y2="2482.47" gradientTransform="translate(4.26 -2219.68)" gradientUnits="userSpaceOnUse"><stop offset="0" stop-color="#ff4ea3"/><stop offset="1" stop-color="#ff5e5b"/></linearGradient></defs><circle cx="252.18" cy="252.18" r="252.18" style="fill:#00b9fe"/><g data-name="Layer 1-2"><g data-name="Layer 1-3"><path d="M380.19 276.5a196.26 196.26 0 0 1-28.19 1.28v-92.16h19.2a38.37 38.37 0 0 1 32 15.36 45.65 45.65 0 0 1 10.24 29.44 42.87 42.87 0 0 1-33.25 46.08Zm79.37-64a83.86 83.86 0 0 0-37.13-57.61A98.23 98.23 0 0 0 366.11 137H84.49a16.37 16.37 0 0 0-14.08 15.36v3.84s-1.28 124.17 1.28 192a42.11 42.11 0 0 0 42.24 39.68s129.29 0 190.73-1.28h9c35.84-9 38.4-42.24 38.4-60.16 70.37 2.56 120.3-47.38 107.5-113.94Z" style="fill:#fff;stroke:#000;stroke-linecap:round;stroke-linejoin:round;stroke-width:1.14px"/><path d="M208.66 334.11c3.84 1.28 5.12 0 5.12 0s44.8-41 65.28-65.29c17.92-21.76 19.2-56.32-11.52-70.4s-56.32 15.36-56.32 15.36a50.44 50.44 0 0 0-70.41-7.68l-1.28 1.28c-15.36 16.64-10.24 44.8 1.28 60.16a771.87 771.87 0 0 0 65.29 64Z" style="fill:#ff5e5b"/><path d="M211.22 335.39a4.75 4.75 0 0 0 3.84-1.28s44.8-41 65.28-65.29c17.92-21.76 19.2-56.32-11.52-70.4s-56.32 15.36-56.32 15.36a50.44 50.44 0 0 0-70.41-7.68l-1.28 1.28c-15.36 16.64-10.24 44.8 1.28 60.16a799.58 799.58 0 0 0 66.57 65.29c0 2.56 1.28 2.56 2.56 2.56Z" style="fill:url(#a)"/></g></g></svg>