<svg width="128" height="128" viewBox="0 0 128 128" xmlns="http://www.w3.org/2000/svg"><path fill="#fff" d="M0 0h128v128H0z"/><path d="M0 0h128v128H0zm96.09 108.7-1.03-7.367c-4.049.297-8.455-1.595-10.3-7.247 9.503-6.364 14.78-14.36 17.55-24.37 2.125-7.257 1.589-18.36-.007-24.72-4.211-16.77-16.73-26.74-35.2-27.81-17.48-1.013-33.25 8.487-40.04 24.33-2.237 5.219-3.389 10.9-3.389 17.96 0 21.27 10.85 35.9 29.56 39.9 4.269.869 15.17 1.268 19.49-.095 4.634 7.622 12.09 13.81 23.36 9.424zM43.65 72.5c-1.32-5.884-1.179-19.87.26-25.65 2.17-8.72 5.85-14.18 11.69-17.35 5.181-2.296 11.61-2.651 16.41-.414 5.217 2.46 8.841 7.432 11.1 15.22 2.075 9.165 2.414 19.88-.216 29.2-.916 3.35-2.247 6.637-3.949 9.618-4.19-6.86-13.72-9.87-20.86-7.178l1.003 6.976c3.974-.91 9.408 2.89 9.686 6.522-15.14 2.279-21.77-4.63-25.12-16.95z" fill="#a82400"/></svg>