<svg xmlns="http://www.w3.org/2000/svg" viewBox="0 0 512 512"><path fill="#ff4500" d="M0 256a256 256 0 1 1 256 256H37c-14 0-20-16-11-26l49-49C29 391 0 327 0 256zm350-102a43 43 0 1 0-42-52c-35 4-62 33-62 69-37 1-71 12-99 29a60 60 0 1 0-61 101c2 70 77 126 170 126s169-56 171-126a60 60 0 1 0-62-101c-28-17-62-28-100-29v-1c0-25 19-46 43-49 4 18 21 32 42 32zm-173 93c17 0 30 18 29 39s-14 30-31 30-31-9-30-31 15-38 32-38zm190 38c1 22-14 31-30 31s-29-8-30-30 11-39 28-39 31 16 32 38zm-48 57a68 68 0 0 1-126 0c-1-3 1-6 4-7a576 576 0 0 1 118 0c3 1 5 4 4 7z"/></svg>