<svg xmlns="http://www.w3.org/2000/svg" viewBox="0 0 512 512">
  <path d="M256 8a248 248 0 1 0 0 496 248 248 0 0 0 0-496zm134 144c-12 0-20-7-20-17s7-14 6-19c0-7-10-7-13-7-39 1-48 57-58 114 21 3 36-1 45-6 12-8-4-16-2-25 4-18 33-19 32 5 0 18-26 42-77 36-11 60-19 115-58 162-29 34-59 40-72 40-25 1-41-12-42-30 0-17 15-26 25-26 22-1 30 25 15 34-13 9 0 12 2 12 10 0 17-5 22-9 24-20 33-55 45-118 8-50 17-78 18-82-16-13-27-29-49-35-16-4-26 0-32 8-8 10-6 23 2 31l13 14c15 18 24 32 21 50-6 30-41 53-83 40-36-11-43-36-39-50 8-25 43-12 35 13-3 9-5 9-6 13-5 15 41 29 51-1 4-15-6-22-23-40-28-32-16-65 3-80 53-39 101 18 111 26 37-109 101-105 102-105 26-1 45 10 45 29 0 7-4 22-19 23z" />
</svg>