<svg xmlns="http://www.w3.org/2000/svg" viewBox="0 0 448 512">
  <path d="m332 236 6 2c29 15 50 36 62 62 15 36 17 96-31 143-36 36-80 53-142 53h-1c-70 0-124-24-160-70-32-41-49-98-49-170S34 127 66 86c36-46 90-69 160-70h1c70 1 125 24 162 70 18 23 32 50 41 82l-41 10c-7-25-18-47-32-65-29-36-73-54-130-55-57 1-101 19-129 55-26 33-39 81-40 143 1 62 14 110 40 143 28 36 72 54 129 55 51-1 85-13 113-41 32-32 32-72 22-96-7-14-18-26-32-35-4 27-12 48-25 65a94 94 0 0 1-73 35c-23 1-46-4-64-16a75 75 0 0 1-34-59c-2-48 36-83 95-87 21-1 41 0 60 3-3-15-8-26-15-35-10-12-26-18-46-18h-1c-17 0-39 5-53 26l-35-23c19-29 51-45 88-45h1c62 0 100 39 104 108h-1zm-156 68c1 26 28 37 54 36 26-2 55-12 60-73a203 203 0 0 0-58-4c-43 2-57 23-56 41v1z" />
</svg>